<?xml version="1.0"?>
<svg xmlns:rdf="http://www.w3.org/1999/02/22-rdf-syntax-ns#" xmlns="http://www.w3.org/2000/svg" xmlns:dc="http://purl.org/dc/elements/1.1/" xmlns:cc="http://web.resource.org/cc/" xmlns:xlink="http://www.w3.org/1999/xlink" xmlns:sodipodi="http://inkscape.sourceforge.net/DTD/sodipodi-0.dtd" xmlns:svg="http://www.w3.org/2000/svg" id="svg9493" sodipodi:version="0.32" viewBox="0 0 100 50" sodipodi:docname="led_rounded_h_grey.svg" sodipodi:docbase="/datas/Projs/Cliparts Stocker/led">
  <defs id="defs9495">
    <linearGradient id="linearGradient13484" y2="46.774" gradientUnits="userSpaceOnUse" y1="47.917" gradientTransform="matrix(.92813 0 0 .63901 21.556 12.876)" x2="21.594" x1="21.594">
      <stop id="stop6508" stop-color="#fff" stop-opacity="0" offset="0"/>
      <stop id="stop6510" stop-color="#fff" stop-opacity=".87451" offset="1"/>
    </linearGradient>
    <linearGradient id="linearGradient13487" y2="47.781" gradientUnits="userSpaceOnUse" y1="46.617" gradientTransform="translate(20 -4)" x2="21.594" x1="21.591">
      <stop id="stop8421" stop-color="#787878" offset="0"/>
      <stop id="stop8423" stop-color="#b4b4b4" offset="1"/>
    </linearGradient>
    <linearGradient id="linearGradient13490" y2="47.844" gradientUnits="userSpaceOnUse" y1="46.557" gradientTransform="translate(20 -4)" x2="21.835" x1="21.409">
      <stop id="stop5758" stop-color="#828282" offset="0"/>
      <stop id="stop5760" stop-color="#929292" stop-opacity=".35294" offset="1"/>
    </linearGradient>
    <linearGradient id="linearGradient13493" y2="48" gradientUnits="userSpaceOnUse" y1="46.377" gradientTransform="translate(20 -4)" x2="21.6" x1="21.594">
      <stop id="stop5744" stop-color="#adadad" offset="0"/>
      <stop id="stop5746" stop-color="#f0f0f0" offset="1"/>
    </linearGradient>
  </defs>
  <sodipodi:namedview id="base" bordercolor="#666666" borderopacity="1.0" pagecolor="#ffffff"/>
  <g id="layer1">
    <g id="g13495" transform="matrix(31.25 0 0 31.25 -1250 -1325)">
      <path id="path13317" fill="url(#linearGradient13493)" d="m40.8 42.4h1.6c0.443 0 0.8 0.357 0.8 0.8s-0.357 0.8-0.8 0.8h-1.6c-0.443 0-0.8-0.357-0.8-0.8s0.357-0.8 0.8-0.8z"/>
      <path id="path13319" fill="url(#linearGradient13490)" d="m40.812 42.562c-0.365 0-0.656 0.268-0.656 0.625 0 0.358 0.299 0.657 0.656 0.657h1.594c0.358 0 0.625-0.291 0.625-0.657 0-0.365-0.26-0.625-0.625-0.625h-1.594z"/>
      <path id="path13321" fill="url(#linearGradient13487)" d="m40.812 42.625c-0.326 0-0.593 0.247-0.593 0.562 0 0.316 0.278 0.594 0.593 0.594h1.594c0.316 0 0.563-0.267 0.563-0.594 0-0.326-0.236-0.562-0.563-0.562h-1.594z"/>
      <path id="path13323" fill="url(#linearGradient13484)" d="m40.873 42.67c-0.303 0-0.551 0.157-0.551 0.359s0.258 0.38 0.551 0.38h1.479c0.293 0 0.522-0.171 0.522-0.38 0-0.208-0.219-0.359-0.522-0.359h-1.479z"/>
    </g>
  </g>
  <metadata>
    <rdf:RDF>
      <cc:Work>
        <dc:format>image/svg+xml</dc:format>
        <dc:type rdf:resource="http://purl.org/dc/dcmitype/StillImage"/>
        <cc:license rdf:resource="http://creativecommons.org/licenses/publicdomain/"/>
        <dc:publisher>
          <cc:Agent rdf:about="http://openclipart.org/">
            <dc:title>Openclipart</dc:title>
          </cc:Agent>
        </dc:publisher>
        <dc:title>led rounded h grey</dc:title>
        <dc:date>2009-11-04T15:34:02</dc:date>
        <dc:description>Glossy grey button with rounded corners by Jean-Victor Balin. From OCAL 0.18 release.</dc:description>
        <dc:source>http://openclipart.org/detail/28081/led-rounded-h-grey-by-anonymous</dc:source>
        <dc:creator>
          <cc:Agent>
            <dc:title>Anonymous</dc:title>
          </cc:Agent>
        </dc:creator>
        <dc:subject>
          <rdf:Bag>
            <rdf:li>button</rdf:li>
            <rdf:li>clip art</rdf:li>
            <rdf:li>clipart</rdf:li>
            <rdf:li>glossy</rdf:li>
            <rdf:li>grey</rdf:li>
            <rdf:li>image</rdf:li>
            <rdf:li>media</rdf:li>
            <rdf:li>public domain</rdf:li>
            <rdf:li>svg</rdf:li>
          </rdf:Bag>
        </dc:subject>
      </cc:Work>
      <cc:License rdf:about="http://creativecommons.org/licenses/publicdomain/">
        <cc:permits rdf:resource="http://creativecommons.org/ns#Reproduction"/>
        <cc:permits rdf:resource="http://creativecommons.org/ns#Distribution"/>
        <cc:permits rdf:resource="http://creativecommons.org/ns#DerivativeWorks"/>
      </cc:License>
    </rdf:RDF>
  </metadata>
</svg>
